<svg xmlns="http://www.w3.org/2000/svg" viewBox="0 0 1129.18 300.42"><defs><style>.cls-1{fill:#fff;}</style></defs><g id="Calque_2" data-name="Calque 2"><g id="color_CMJN" data-name="color CMJN"><path class="cls-1" d="M85.46,167.93l-2.17-13.07c-12.79,12.83-25.81,16.56-42.73,16.56C19.09,171.42,0,160,0,134.58,0,79.07,80.91,104.25,80.91,81.4c0-8.87-10-10-14.75-10-6.29,0-14.75,1.4-15.83,11.89H6.94c0-25.89,17.14-41.05,62-41.05,53.79,0,57.05,21.46,57.05,50.62V150c0,7,.21,10.49,6.07,15.63v2.33Zm-4.55-54.11c-14.75,7.69-34.27,4-34.27,19.82,0,6.07,5.42,10.26,14.31,10.26C76.79,143.9,82,130.61,80.91,113.82Z"/><path class="cls-1" d="M194.78,58.08c8.89-11.2,19.3-15.87,32.75-15.87,29.06,0,49.45,27.06,49.45,63.91,0,36.15-14.31,65.3-51.4,65.3-18.87,0-29.28-9.09-34.93-20.75h-.43v17.26H149.66V0h45.12Zm37.09,49.67c0-13.06-4.56-28-19.09-28-13.67,0-19.09,14.47-19.09,27.06,0,13.06,4.34,29.62,19.09,29.62S231.87,121.05,231.87,107.75Z"/><path class="cls-1" d="M387.2,86.75c-1.58-20.71-18.42-31.4-39.59-31.4-29.35,0-45.05,25.94-45.05,52.56,0,31.63,14.79,54.84,45.05,54.84,21.85,0,37.78-15,40.73-36.41H397c-3.87,28-24.12,43.92-49.38,43.92-38,0-53.69-29.81-53.69-62.35S313,47.84,347.61,47.84c25.26,0,45.74,12.29,48.25,38.91Zm80.09-38.91c34.37,0,53.71,28,53.71,61.21s-19.34,61.21-53.71,61.21-53.7-28-53.7-61.21S432.94,47.84,467.29,47.84Zm0,114.91c29.36,0,45.06-25.71,45.06-53.7s-15.7-53.7-45.06-53.7-45,25.71-45,53.7S437.94,162.75,467.29,162.75Zm168.38,4.78H627v-25h-.45c-5.92,17.52-23.66,27.76-41.87,27.76-41.18,0-41.64-33-41.64-47.33V50.57h8.65v73.95c0,12.06,1.37,38.23,33.22,38.23,26.17,0,42.09-20.25,42.09-48.92V50.57h8.65Zm36-91h.68C676.85,61.27,696,49,717.13,49.89v8.65a39.55,39.55,0,0,0-32.31,11.37c-8.65,8.88-12.29,16.16-13.2,33.68v63.94H663v-117h8.65Zm99.43-18.43H745.57v81.69c0,18.89,8.87,20.71,25.26,20.25v7.51c-17.75,1.14-34.82-1.37-33.91-27.76V58.08H715.31V50.57h21.61V14.17h8.65v36.4h25.48Zm104,87.83c0,6.83,0,14.11,7.73,14.11a41,41,0,0,0,6.37-.68v7.28a40.33,40.33,0,0,1-7,.91c-13.65,0-15.7-7.51-15.7-17.07v-6.14h-.46c-5.45,13.88-21.16,25.94-43.46,25.94-22.06,0-39.13-8.42-39.13-33,0-27.3,23.66-33,43-34.58C865,100,866.62,97.44,866.62,78.33c0-5.23-5.92-23-32.54-23-20.93,0-34.81,10.92-36,31.17h-8.65c1.14-25.71,17.07-38.68,44.6-38.68,20.48,0,41,6.37,41,30.49Zm-8.65-44.82c-6.83,7.73-25.49,6.82-42.32,9.09-20.48,2.29-32.08,9.56-32.08,27.08,0,14.11,10.24,25.49,30.71,25.49,39.37,0,43.69-33.67,43.69-39.82Zm134.7-50.52V161.38c0,9.1,0,52.34-50.52,50.74-25,0-44.36-9.32-45.73-36.4h8.65c1.82,20.71,18.2,28.9,37.31,28.9,41,0,41.64-33.45,41.64-41.19V136.58H992c-8.19,17.29-22.53,26.63-42.32,26.63-34.36,0-50.51-25.26-50.51-57.8,0-30.94,17.51-57.57,50.51-57.57,18.2,0,36,9.56,42.32,27.08h.45V50.57ZM907.8,105.41c0,27.53,14.34,50.28,41.87,50.28,28.44,0,42.54-23.88,42.54-50.28,0-26.17-13.87-50.06-42.54-50.06C921.45,55.35,907.8,80.61,907.8,105.41Zm124,4.77c-.46,27.54,14.11,52.57,43,52.57,22.07,0,37.77-13.2,41.87-34.81h8.65c-4.55,27.3-22.76,42.32-50.52,42.32-34.13,0-52.11-26.85-51.65-59.16-.46-32.08,16.38-63.26,51.65-63.26,36.63,0,53,28.9,51.42,62.34Zm85.78-7.5c-.46-24.58-15.93-47.33-42.78-47.33-25.94,0-41.18,24.12-43,47.33Z"/><rect class="cls-1" x="1.47" y="204.14" width="880.98" height="5.69"/><rect class="cls-1" x="1018.27" y="204.14" width="108.96" height="5.69"/><path class="cls-1" d="M6.32,249.32H27.57c5.66,0,14.54,2,14.54,14,0,8.74-5.73,13.7-15.66,13.7H9.39v22.23H6.32Zm3.07,25H27c9,0,12.09-6,12.09-11.12C39,259.52,37.36,252,27.37,252h-18Zm80.14-25h20.83c8.75,0,15.8,3.21,15.8,12.86,0,6.71-4,11.68-10.69,12.79v.15c7.41.83,9.22,5.51,9.71,10.69s-.34,10.76,1.68,13.42h-3.43c-1.88-3.42-.76-9.16-1.32-14s-3-8.74-11.75-8.74H92.61v22.72H89.53Zm20.83,24.54c7.27,0,12.72-3.43,12.72-11.47,0-7.55-6-10.41-12.72-10.41H92.61v21.88Zm99,22.71v2.66h-33.9V249.32H209V252H178.54v20h28.67v2.65H178.54v21.95ZM192,236l8.11,9.79h-2.66l-6.85-8.05-6.78,8.05H181.2l8-9.79ZM251.14,252v-2.66h38.24V252H271.75v47.25h-3.07V252ZM396,249.32h3.07v49.91H396Zm53.8,0h4.4l19.51,46.49h.14l19.29-46.49h4.4v49.91h-3.07V253.1h-.15l-19,46.13h-3.08L453.06,253.1h-.15v46.13h-3.07Zm98.45,0h4.4l19.5,46.49h.14l19.29-46.49H596v49.91H593V253.1h-.15l-19,46.13h-3.08L551.5,253.1h-.14v46.13h-3.07Zm120,51.1c-15,0-23.77-11.53-23.77-26.14s8.81-26.15,23.77-26.15S692,259.67,692,274.28,683.14,300.42,668.26,300.42Zm0-2.66c13,0,20.61-10.69,20.61-23.48s-7.61-23.49-20.61-23.49-20.7,10.69-20.7,23.49S655.19,297.76,668.26,297.76Zm72.16-48.44h20c11.88,0,15.73,6.5,15.73,12.93a10.68,10.68,0,0,1-9.72,10.62l.14.15c1.33-.21,11.26,2.16,11.26,12.23,0,9.09-7,14-17.41,14h-20ZM743.49,272h16.92c8.31,0,12.65-4.19,12.65-10.28,0-7.2-6-9.71-12.65-9.71H743.49Zm0,24.6h16.92c8.81,0,14.33-3.91,14.33-11.32,0-8.53-7.76-10.63-14.33-10.63H743.49Zm82.87-47.25h3.07v49.91h-3.07Zm53.79,0h3.08v47.25h28.31v2.66H880.15Zm76.86,0h3.07v49.91H957Zm87.7,47.25v2.66H1010.8V249.32h33.55V252h-30.47v20h28.66v2.65h-28.66v21.95Zm47.14-47.25h20.83c8.74,0,15.8,3.21,15.8,12.86,0,6.71-4,11.68-10.69,12.79v.15c7.4.83,9.22,5.51,9.71,10.69s-.35,10.76,1.68,13.42h-3.43c-1.88-3.42-.77-9.16-1.32-14s-3-8.74-11.75-8.74h-17.76v22.72h-3.07Zm20.83,24.54c7.27,0,12.72-3.43,12.72-11.47,0-7.55-6-10.41-12.72-10.41h-17.76v21.88Z"/></g></g></svg>