<svg xmlns="http://www.w3.org/2000/svg" viewBox="0 0 1252.88 161.5"><defs><style>.cls-1{fill:#fff;}</style></defs><g id="Calque_2" data-name="Calque 2"><g id="color_CMJN" data-name="color CMJN"><path class="cls-1" d="M875.77,84.67a7.31,7.31,0,0,1,0,1,3,3,0,0,1-.14.68.73.73,0,0,1-.22.35.48.48,0,0,1-.31.1,2,2,0,0,1-.85-.36,12.24,12.24,0,0,0-1.55-.78,15.29,15.29,0,0,0-2.3-.79,12,12,0,0,0-3.11-.36,8.72,8.72,0,0,0-3.42.65A7.46,7.46,0,0,0,861.2,87a8.21,8.21,0,0,0-1.67,2.88,11.25,11.25,0,0,0-.59,3.72,11.76,11.76,0,0,0,.6,3.93,7.83,7.83,0,0,0,1.66,2.85,6.79,6.79,0,0,0,2.57,1.73,9,9,0,0,0,3.31.59,8,8,0,0,0,1.75-.2,6.78,6.78,0,0,0,1.61-.61v-6h-4.93c-.25,0-.43-.15-.57-.45a4.27,4.27,0,0,1-.2-1.54,8.25,8.25,0,0,1,0-1,2.46,2.46,0,0,1,.15-.61.85.85,0,0,1,.24-.34.52.52,0,0,1,.33-.12h8.79a1.34,1.34,0,0,1,.58.12,1.16,1.16,0,0,1,.44.33,1.51,1.51,0,0,1,.29.53,2.28,2.28,0,0,1,.1.72v10.36a2.47,2.47,0,0,1-.21,1.06,1.55,1.55,0,0,1-.86.72c-.44.17-1,.35-1.63.54a20.15,20.15,0,0,1-2,.48,18.45,18.45,0,0,1-2.09.3c-.71.07-1.41.1-2.13.1a16.17,16.17,0,0,1-5.58-.89,11,11,0,0,1-6.8-6.74,16,16,0,0,1-.9-5.55,16.24,16.24,0,0,1,1-5.75,12.28,12.28,0,0,1,2.74-4.33,11.92,11.92,0,0,1,4.28-2.72,15.5,15.5,0,0,1,5.59-.95,19.41,19.41,0,0,1,3.08.23,17,17,0,0,1,2.42.57,8.94,8.94,0,0,1,1.72.71,4.37,4.37,0,0,1,1,.66,1.72,1.72,0,0,1,.39.8A7.17,7.17,0,0,1,875.77,84.67Z"/><path class="cls-1" d="M901.71,106a.81.81,0,0,1-.08.37.64.64,0,0,1-.38.25,3.37,3.37,0,0,1-.89.14c-.39,0-.92,0-1.59,0s-1,0-1.35,0a2.52,2.52,0,0,1-.79-.15.82.82,0,0,1-.41-.28,1.43,1.43,0,0,1-.21-.41l-2.33-5.82c-.28-.66-.56-1.24-.83-1.75a5.26,5.26,0,0,0-.89-1.28,3.41,3.41,0,0,0-1.14-.78,4,4,0,0,0-1.49-.26h-1.65V106a.55.55,0,0,1-.13.36.93.93,0,0,1-.43.26,4.12,4.12,0,0,1-.81.16,11.15,11.15,0,0,1-1.29.06,11.45,11.45,0,0,1-1.28-.06,4,4,0,0,1-.81-.16.84.84,0,0,1-.42-.26.54.54,0,0,1-.12-.36V82.29A1.47,1.47,0,0,1,884,80.62h6.74c.68,0,1.25,0,1.69,0s.85.06,1.21.1a11.27,11.27,0,0,1,2.83.77A6.57,6.57,0,0,1,898.56,83,5.92,5.92,0,0,1,899.9,85a7.59,7.59,0,0,1,.46,2.75,8.05,8.05,0,0,1-.33,2.38,6.17,6.17,0,0,1-1,1.93,6.59,6.59,0,0,1-1.59,1.47,8.68,8.68,0,0,1-2.15,1,6.33,6.33,0,0,1,1.1.69,5.88,5.88,0,0,1,1,1,10.24,10.24,0,0,1,.86,1.31,16.21,16.21,0,0,1,.78,1.66l2.2,5.14c.2.51.33.88.4,1.11A2.07,2.07,0,0,1,901.71,106Zm-6.82-17.68a3.84,3.84,0,0,0-.59-2.17,3.16,3.16,0,0,0-1.91-1.25,6.7,6.7,0,0,0-.92-.16,12.78,12.78,0,0,0-1.41-.06h-2.38v7.39h2.7a6.47,6.47,0,0,0,2-.27,4.15,4.15,0,0,0,1.41-.77,3.08,3.08,0,0,0,.84-1.18A3.9,3.9,0,0,0,894.89,88.31Z"/><path class="cls-1" d="M929.86,93.34a19.45,19.45,0,0,1-.8,5.8,11.72,11.72,0,0,1-2.4,4.34,10.36,10.36,0,0,1-3.93,2.72,14.71,14.71,0,0,1-5.43.94,16,16,0,0,1-5.3-.8,9.21,9.21,0,0,1-3.78-2.43A10.32,10.32,0,0,1,906,99.77a20.65,20.65,0,0,1-.76-6,18.62,18.62,0,0,1,.81-5.69,11.55,11.55,0,0,1,2.39-4.3,10.49,10.49,0,0,1,3.94-2.71,14.28,14.28,0,0,1,5.44-1,16,16,0,0,1,5.23.78,9.19,9.19,0,0,1,3.78,2.42,10.51,10.51,0,0,1,2.3,4.12A20,20,0,0,1,929.86,93.34Zm-5.55.29a19.49,19.49,0,0,0-.33-3.74A8.08,8.08,0,0,0,922.89,87a5.36,5.36,0,0,0-2.07-1.85,7.13,7.13,0,0,0-3.22-.65,6.58,6.58,0,0,0-3.26.73,6.11,6.11,0,0,0-2.11,2,8.07,8.07,0,0,0-1.14,2.87,17.64,17.64,0,0,0-.33,3.48,21.08,21.08,0,0,0,.32,3.83,8.29,8.29,0,0,0,1.09,2.91,4.93,4.93,0,0,0,2.05,1.84,7.36,7.36,0,0,0,3.24.64,6.69,6.69,0,0,0,3.26-.73,5.81,5.81,0,0,0,2.12-2A8.38,8.38,0,0,0,924,97.16,17.4,17.4,0,0,0,924.31,93.63Z"/><path class="cls-1" d="M956.81,97a12.25,12.25,0,0,1-.71,4.29,8.44,8.44,0,0,1-2.07,3.2,9.07,9.07,0,0,1-3.38,2,14.31,14.31,0,0,1-4.63.69,14.64,14.64,0,0,1-4.41-.62,8.61,8.61,0,0,1-3.3-1.86,8.17,8.17,0,0,1-2.07-3.11,12.3,12.3,0,0,1-.71-4.36V81.35a.61.61,0,0,1,.12-.37.91.91,0,0,1,.43-.26,5.17,5.17,0,0,1,.82-.16,11.15,11.15,0,0,1,1.29-.06,10.82,10.82,0,0,1,1.26.06,4.8,4.8,0,0,1,.81.16,1,1,0,0,1,.43.26.56.56,0,0,1,.13.37V96.73a8.23,8.23,0,0,0,.39,2.68,5,5,0,0,0,1.09,1.89,4.56,4.56,0,0,0,1.71,1.11,6.32,6.32,0,0,0,2.23.38,6,6,0,0,0,2.23-.39,4.3,4.3,0,0,0,1.67-1.11,5.07,5.07,0,0,0,1.06-1.81,7.46,7.46,0,0,0,.37-2.45V81.35a.61.61,0,0,1,.12-.37,1,1,0,0,1,.43-.26,4.8,4.8,0,0,1,.81-.16,11.32,11.32,0,0,1,1.28-.06,10.82,10.82,0,0,1,1.26.06,4.72,4.72,0,0,1,.79.16,1,1,0,0,1,.43.26.61.61,0,0,1,.12.37Z"/><path class="cls-1" d="M981.54,88.53a10.23,10.23,0,0,1-.69,3.89,7.53,7.53,0,0,1-2,2.85A8.73,8.73,0,0,1,975.65,97a15,15,0,0,1-4.48.6H969V106a.55.55,0,0,1-.13.36.88.88,0,0,1-.43.26,4,4,0,0,1-.8.16,13.79,13.79,0,0,1-2.57,0,4.09,4.09,0,0,1-.82-.16.84.84,0,0,1-.42-.26.6.6,0,0,1-.12-.36V82.51a1.84,1.84,0,0,1,.49-1.41,1.8,1.8,0,0,1,1.3-.48h6.14c.62,0,1.21,0,1.76.07s1.23.15,2,.3a9,9,0,0,1,2.36.86,7,7,0,0,1,2,1.58,6.38,6.38,0,0,1,1.29,2.24A8.54,8.54,0,0,1,981.54,88.53Zm-5.54.39a4.7,4.7,0,0,0-.48-2.26,3.39,3.39,0,0,0-1.19-1.31,3.88,3.88,0,0,0-1.48-.53,11.94,11.94,0,0,0-1.6-.11H969v8.84h2.38a5.66,5.66,0,0,0,2.12-.35,3.52,3.52,0,0,0,1.4-1,4.23,4.23,0,0,0,.83-1.47A5.85,5.85,0,0,0,976,88.92Z"/><path class="cls-1" d="M1002.32,104.6a8.5,8.5,0,0,1-.05,1,2.23,2.23,0,0,1-.15.64.81.81,0,0,1-.25.35.57.57,0,0,1-.33.11H988.45a1.66,1.66,0,0,1-1.12-.39,1.62,1.62,0,0,1-.45-1.28V82.29a1.63,1.63,0,0,1,.45-1.28,1.66,1.66,0,0,1,1.12-.39h13a.61.61,0,0,1,.33.1.87.87,0,0,1,.24.36,2.75,2.75,0,0,1,.15.64,8.82,8.82,0,0,1,.05,1,8.39,8.39,0,0,1-.05,1,2.75,2.75,0,0,1-.15.64.89.89,0,0,1-.24.35.55.55,0,0,1-.33.11h-9.3v6.36H1000a.57.57,0,0,1,.33.11.91.91,0,0,1,.25.34,2.24,2.24,0,0,1,.15.63,9.24,9.24,0,0,1,0,1.92,2,2,0,0,1-.15.61.77.77,0,0,1-.25.34.64.64,0,0,1-.33.1h-7.88v7.34h9.39a.52.52,0,0,1,.33.12.81.81,0,0,1,.25.35,2.24,2.24,0,0,1,.15.63A8.7,8.7,0,0,1,1002.32,104.6Z"/><path class="cls-1" d="M1157.34,96.13l-5.7,6.81h7.51v4.11h-15.78l2.35-3c.93-1.17,1.88-2.39,2.87-3.66s2-2.52,3-3.74,1.87-2.29,2.66-3.21a6,6,0,0,0,1.11-1.81,5.53,5.53,0,0,0,.39-2,4.54,4.54,0,0,0-.37-1.81,4.48,4.48,0,0,0-1-1.45,4.56,4.56,0,0,0-1.47-1,4.76,4.76,0,0,0-6.24,2.66l-3.81-1.48a8.2,8.2,0,0,1,1.3-2.31,8.76,8.76,0,0,1,1.93-1.77,8.91,8.91,0,0,1,2.36-1.15,9,9,0,0,1,6.06.27,8.84,8.84,0,0,1,2.78,1.85,9.28,9.28,0,0,1,1.87,2.76,8.38,8.38,0,0,1,.68,3.39A9.79,9.79,0,0,1,1157.34,96.13Z"/><path class="cls-1" d="M1190.35,99.37a13.47,13.47,0,0,1-2.84,4.21,13.28,13.28,0,0,1-4.21,2.83,13.3,13.3,0,0,1-10.31,0,13.39,13.39,0,0,1-4.21-2.83,13.65,13.65,0,0,1-2.84-4.21,13.25,13.25,0,0,1,0-10.34,13.65,13.65,0,0,1,2.84-4.21A13.79,13.79,0,0,1,1173,82a13.18,13.18,0,0,1,10.31,0,13.67,13.67,0,0,1,4.21,2.85,13.47,13.47,0,0,1,2.84,4.21,13.14,13.14,0,0,1,0,10.34Zm-3.78-8.73a9.11,9.11,0,0,0-2-2.9,9.41,9.41,0,0,0-2.93-2,9.14,9.14,0,0,0-7.11,0,9.13,9.13,0,0,0-4.86,4.86,8.79,8.79,0,0,0-.73,3.56,8.64,8.64,0,0,0,.73,3.55,9.1,9.1,0,0,0,4.86,4.87,9.14,9.14,0,0,0,7.11,0,9.25,9.25,0,0,0,4.87-4.87,8.8,8.8,0,0,0,.72-3.55A9.3,9.3,0,0,0,1186.57,90.64Z"/><path class="cls-1" d="M1221.09,99.37a13.5,13.5,0,0,1-2.85,4.21,13.23,13.23,0,0,1-4.2,2.83,13.32,13.32,0,0,1-10.32,0,13.35,13.35,0,0,1-4.2-2.83,13.5,13.5,0,0,1-2.85-4.21,13.25,13.25,0,0,1,0-10.34,13.5,13.5,0,0,1,2.85-4.21,13.75,13.75,0,0,1,4.2-2.85A13.2,13.2,0,0,1,1214,82a13.47,13.47,0,0,1,7,7.06,13.25,13.25,0,0,1,0,10.34Zm-3.79-8.73a9,9,0,0,0-2-2.9,9.49,9.49,0,0,0-2.92-2,9.16,9.16,0,0,0-7.12,0,9.31,9.31,0,0,0-4.86,4.86,9,9,0,0,0-.72,3.56,8.8,8.8,0,0,0,.72,3.55,9.28,9.28,0,0,0,4.86,4.87,9.16,9.16,0,0,0,7.12,0,9.19,9.19,0,0,0,4.86-4.87,8.8,8.8,0,0,0,.72-3.55A9.11,9.11,0,0,0,1217.3,90.64Z"/><path class="cls-1" d="M1251.82,99.37a13.47,13.47,0,0,1-2.84,4.21,13.28,13.28,0,0,1-4.21,2.83,13.3,13.3,0,0,1-10.31,0,13.28,13.28,0,0,1-4.21-2.83,13.5,13.5,0,0,1-2.85-4.21,13.25,13.25,0,0,1,0-10.34,13.5,13.5,0,0,1,2.85-4.21,13.67,13.67,0,0,1,4.21-2.85,13.18,13.18,0,0,1,10.31,0,13.67,13.67,0,0,1,4.21,2.85,13.47,13.47,0,0,1,2.84,4.21,13.14,13.14,0,0,1,0,10.34ZM1248,90.64a9.11,9.11,0,0,0-2-2.9,9.53,9.53,0,0,0-2.93-2,9.14,9.14,0,0,0-7.11,0,9.22,9.22,0,0,0-4.86,4.86,9,9,0,0,0-.73,3.56,8.81,8.81,0,0,0,.73,3.55,9.19,9.19,0,0,0,4.86,4.87,9.14,9.14,0,0,0,7.11,0,9.21,9.21,0,0,0,2.91-2,9.38,9.38,0,0,0,2-2.91,8.8,8.8,0,0,0,.72-3.55A9.11,9.11,0,0,0,1248,90.64Z"/><path class="cls-1" d="M1048.24,104.71a6.46,6.46,0,0,1,.29,1.13.67.67,0,0,1-.16.62,1.3,1.3,0,0,1-.77.26c-.37,0-.88,0-1.52,0s-1.2,0-1.58,0a3.92,3.92,0,0,1-.86-.12.74.74,0,0,1-.41-.25,1.21,1.21,0,0,1-.2-.41l-1.72-5.15h-9.63l-1.62,5a1.4,1.4,0,0,1-.21.46.78.78,0,0,1-.41.3,3.26,3.26,0,0,1-.81.15q-.53,0-1.38,0a13.78,13.78,0,0,1-1.43-.05,1.2,1.2,0,0,1-.71-.29.81.81,0,0,1-.14-.64,7.32,7.32,0,0,1,.3-1.11l7.91-22.73a1.7,1.7,0,0,1,.27-.54,1,1,0,0,1,.5-.32,3.69,3.69,0,0,1,1-.13c.41,0,.95,0,1.63,0s1.39,0,1.86,0a4.66,4.66,0,0,1,1.08.13,1,1,0,0,1,.55.33,1.91,1.91,0,0,1,.29.59Zm-11.77-18.79h0l-3.63,10.89h7.27Z"/><path class="cls-1" d="M1071.06,99a7.92,7.92,0,0,1-.76,3.54,7.37,7.37,0,0,1-2,2.54,8.93,8.93,0,0,1-3,1.54,13,13,0,0,1-3.69.51,13.88,13.88,0,0,1-4.47-.74,8.41,8.41,0,0,1-1.45-.64,3.85,3.85,0,0,1-.85-.6,1.52,1.52,0,0,1-.37-.73,8.28,8.28,0,0,1-.1-1.41,10,10,0,0,1,0-1,3.36,3.36,0,0,1,.12-.68.78.78,0,0,1,.24-.36.56.56,0,0,1,.35-.11,1.69,1.69,0,0,1,.78.32c.34.22.77.46,1.29.73a13.11,13.11,0,0,0,1.9.72,8.84,8.84,0,0,0,2.54.33,5.92,5.92,0,0,0,1.7-.23,3.84,3.84,0,0,0,1.28-.64,2.67,2.67,0,0,0,.8-1,3.23,3.23,0,0,0,.28-1.37,2.4,2.4,0,0,0-.48-1.5,4.61,4.61,0,0,0-1.24-1.1,12.1,12.1,0,0,0-1.73-.91l-2-.9a19.28,19.28,0,0,1-2-1.08,7.81,7.81,0,0,1-1.74-1.45,6.75,6.75,0,0,1-1.23-2,7.09,7.09,0,0,1-.48-2.75,7.42,7.42,0,0,1,.68-3.24,6.87,6.87,0,0,1,1.84-2.31A8,8,0,0,1,1060,81a12,12,0,0,1,3.33-.46,12.3,12.3,0,0,1,1.82.15,10.73,10.73,0,0,1,1.71.38,8.72,8.72,0,0,1,1.4.53,3,3,0,0,1,.81.5,1.18,1.18,0,0,1,.27.33,1.46,1.46,0,0,1,.12.37,5.53,5.53,0,0,1,.07.57c0,.23,0,.52,0,.86s0,.71,0,1a3.42,3.42,0,0,1-.1.66.76.76,0,0,1-.2.37.49.49,0,0,1-.34.12,1.54,1.54,0,0,1-.69-.28c-.33-.18-.71-.38-1.17-.6a11.38,11.38,0,0,0-1.61-.6,7,7,0,0,0-2-.26,4.73,4.73,0,0,0-1.48.2,3.07,3.07,0,0,0-1.06.58,2.2,2.2,0,0,0-.63.88,2.86,2.86,0,0,0-.21,1.09,2.36,2.36,0,0,0,.46,1.47,4.54,4.54,0,0,0,1.25,1.11,13.26,13.26,0,0,0,1.77.91l2,.9a21.88,21.88,0,0,1,2,1.08,8.5,8.5,0,0,1,1.76,1.45,6.67,6.67,0,0,1,1.25,2A6.86,6.86,0,0,1,1071.06,99Z"/><path class="cls-1" d="M1094.27,99a7.92,7.92,0,0,1-.75,3.54,7.2,7.2,0,0,1-2,2.54,8.79,8.79,0,0,1-3,1.54,12.94,12.94,0,0,1-3.68.51,13.88,13.88,0,0,1-4.48-.74,8.78,8.78,0,0,1-1.45-.64,4,4,0,0,1-.84-.6,1.37,1.37,0,0,1-.37-.73,7.22,7.22,0,0,1-.11-1.41,10,10,0,0,1,0-1,3.29,3.29,0,0,1,.13-.68.77.77,0,0,1,.23-.36.56.56,0,0,1,.35-.11,1.65,1.65,0,0,1,.78.32c.34.22.78.46,1.3.73a12.53,12.53,0,0,0,1.89.72,8.91,8.91,0,0,0,2.55.33,6,6,0,0,0,1.7-.23,3.94,3.94,0,0,0,1.28-.64,2.87,2.87,0,0,0,.8-1,3.38,3.38,0,0,0,.27-1.37,2.46,2.46,0,0,0-.47-1.5,4.77,4.77,0,0,0-1.24-1.1,12.66,12.66,0,0,0-1.73-.91l-2-.9a20.36,20.36,0,0,1-2-1.08,8,8,0,0,1-1.73-1.45,6.78,6.78,0,0,1-1.24-2A7.09,7.09,0,0,1,1078,88a7.28,7.28,0,0,1,.68-3.24,6.64,6.64,0,0,1,1.84-2.31,7.81,7.81,0,0,1,2.73-1.38,12.09,12.09,0,0,1,3.34-.46,12.52,12.52,0,0,1,1.82.15,10.6,10.6,0,0,1,1.7.38,8,8,0,0,1,1.4.53,3.13,3.13,0,0,1,.82.5,1.4,1.4,0,0,1,.27.33,3.24,3.24,0,0,1,.12.37,3.84,3.84,0,0,1,.06.57c0,.23,0,.52,0,.86s0,.71,0,1a4.59,4.59,0,0,1-.09.66,1,1,0,0,1-.2.37.5.5,0,0,1-.35.12,1.61,1.61,0,0,1-.7-.28c-.31-.18-.69-.38-1.16-.6a11.38,11.38,0,0,0-1.61-.6,7,7,0,0,0-2-.26,4.76,4.76,0,0,0-1.49.2,3.16,3.16,0,0,0-1.06.58,2.3,2.3,0,0,0-.63.88,2.86,2.86,0,0,0-.21,1.09,2.37,2.37,0,0,0,.47,1.47A4.26,4.26,0,0,0,1085,90a12.53,12.53,0,0,0,1.76.91l2,.9a20.67,20.67,0,0,1,2,1.08,8,8,0,0,1,1.76,1.45,6.48,6.48,0,0,1,1.25,2A6.86,6.86,0,0,1,1094.27,99Z"/><path class="cls-1" d="M1123.2,97.11a12,12,0,0,1-.69,4.21,8.26,8.26,0,0,1-2,3.15,8.84,8.84,0,0,1-3.32,2,14.12,14.12,0,0,1-4.56.67,14.48,14.48,0,0,1-4.33-.6,8.55,8.55,0,0,1-3.25-1.83,8.09,8.09,0,0,1-2-3.06,11.91,11.91,0,0,1-.7-4.29V81.75a.56.56,0,0,1,.12-.36.91.91,0,0,1,.43-.26,4.94,4.94,0,0,1,.79-.16,11.33,11.33,0,0,1,1.27,0,11.05,11.05,0,0,1,1.25,0,4.72,4.72,0,0,1,.79.16.92.92,0,0,1,.42.26.52.52,0,0,1,.14.36V96.87a8.29,8.29,0,0,0,.37,2.64,4.86,4.86,0,0,0,1.08,1.86,4.48,4.48,0,0,0,1.69,1.09,6.55,6.55,0,0,0,4.37,0,4.28,4.28,0,0,0,1.65-1.1,5,5,0,0,0,1-1.78,7.42,7.42,0,0,0,.37-2.4V81.75a.56.56,0,0,1,.12-.36.83.83,0,0,1,.41-.26,4.65,4.65,0,0,1,.8-.16,11.35,11.35,0,0,1,1.26,0,10.57,10.57,0,0,1,1.23,0,4.94,4.94,0,0,1,.79.16.88.88,0,0,1,.41.26.51.51,0,0,1,.12.36Z"/><path class="cls-1" d="M641.22,103.78l159-10.2A895.51,895.51,0,0,0,796.68,0H638.19c2.18,23.72,3.4,50.3,3.4,78.37C641.59,87,641.44,95.46,641.22,103.78Z"/><path class="cls-1" d="M641,108.45c-.33,19.38-1.24,35.7-2.66,53.05H796.65c1.78-17.92,2.69-35.79,3-53Z"/><path class="cls-1" d="M16.76,99.45H7.43l-1.77,5.32H0L9.61,79h4.93l9.67,25.82H18.55ZM8.87,95.14h6.45l-3.24-9.66Z"/><path class="cls-1" d="M26.62,104.77V79h9c3.14,0,5.51.6,7.13,1.8A6.16,6.16,0,0,1,45.22,86a5.83,5.83,0,0,1-1,3.34,5.61,5.61,0,0,1-2.72,2.12,5.44,5.44,0,0,1,3.13,2,5.9,5.9,0,0,1,1.15,3.69,6.81,6.81,0,0,1-2.38,5.64q-2.37,1.92-6.77,2Zm5.32-15h3.94q4-.08,4-3.21a3,3,0,0,0-1-2.53,5.39,5.39,0,0,0-3.22-.77H31.94Zm0,3.76v7H36.5a4.37,4.37,0,0,0,2.93-.9,3.07,3.07,0,0,0,1.06-2.47c0-2.36-1.23-3.56-3.67-3.6Z"/><path class="cls-1" d="M79.11,96.17A9.12,9.12,0,0,1,76,102.73a10.77,10.77,0,0,1-7.31,2.4,9.72,9.72,0,0,1-7.81-3.35q-2.85-3.33-2.85-9.17V91a15.55,15.55,0,0,1,1.31-6.56,9.92,9.92,0,0,1,3.75-4.36,10.54,10.54,0,0,1,5.67-1.51A10.55,10.55,0,0,1,76,81a9.87,9.87,0,0,1,3.16,6.72H73.83a5.38,5.38,0,0,0-1.4-3.62A5.14,5.14,0,0,0,68.79,83a4.53,4.53,0,0,0-4,1.91q-1.32,1.91-1.36,5.91v2c0,2.79.43,4.83,1.27,6.12a4.44,4.44,0,0,0,4,1.93,5.26,5.26,0,0,0,3.68-1.12,5.11,5.11,0,0,0,1.39-3.49Z"/><path class="cls-1" d="M103.81,92.45a15.53,15.53,0,0,1-1.34,6.68,10.17,10.17,0,0,1-3.86,4.44,10.66,10.66,0,0,1-5.75,1.56,10.83,10.83,0,0,1-5.73-1.54,10.24,10.24,0,0,1-3.9-4.41,15.17,15.17,0,0,1-1.41-6.59V91.31A15.44,15.44,0,0,1,83.2,84.6a10.26,10.26,0,0,1,3.88-4.45,11.4,11.4,0,0,1,11.48,0,10.26,10.26,0,0,1,3.88,4.45,15.42,15.42,0,0,1,1.37,6.7Zm-5.39-1.17A10.84,10.84,0,0,0,97,85.11a5.14,5.14,0,0,0-8.28,0,10.74,10.74,0,0,0-1.47,6.11v1.26a11,11,0,0,0,1.45,6.13,5.08,5.08,0,0,0,8.3.08,10.89,10.89,0,0,0,1.45-6.12Z"/><path class="cls-1" d="M127.22,79V96a8.68,8.68,0,0,1-2.65,6.7,10.19,10.19,0,0,1-7.24,2.47,10.3,10.3,0,0,1-7.18-2.4,8.55,8.55,0,0,1-2.72-6.58V79h5.32V96a4.91,4.91,0,0,0,1.22,3.7,4.64,4.64,0,0,0,3.36,1.16q4.48,0,4.56-4.71V79Z"/><path class="cls-1" d="M141.15,95.32h-4.24v9.45h-5.32V79h9.59q4.57,0,7.06,2a7.06,7.06,0,0,1,2.48,5.77,7.93,7.93,0,0,1-1.14,4.4A7.77,7.77,0,0,1,146.11,94l5.59,10.56v.24H146ZM136.91,91h4.29a4.39,4.39,0,0,0,3.1-1,3.65,3.65,0,0,0,1.1-2.81,3.86,3.86,0,0,0-1-2.87,4.29,4.29,0,0,0-3.18-1h-4.27Z"/><path class="cls-1" d="M173.31,83.26H165.4v21.51h-5.32V83.26h-7.8V79h21Z"/><path class="cls-1" d="M188.8,99.45h-9.33l-1.78,5.32H172L181.65,79h4.93l9.66,25.82h-5.65Zm-7.9-4.31h6.46l-3.25-9.66Z"/><path class="cls-1" d="M219.09,101.51a9.23,9.23,0,0,1-4.07,2.67,17,17,0,0,1-5.81.95,11.46,11.46,0,0,1-5.88-1.47,9.67,9.67,0,0,1-3.9-4.24A14.87,14.87,0,0,1,198,92.87V91.12a15.89,15.89,0,0,1,1.3-6.7,9.65,9.65,0,0,1,3.76-4.32,12.38,12.38,0,0,1,12.94.69,9.38,9.38,0,0,1,3.07,6.37h-5.18a5.16,5.16,0,0,0-1.57-3.24,5,5,0,0,0-3.34-1,4.73,4.73,0,0,0-4.14,2A10.75,10.75,0,0,0,203.43,91v1.65q0,4.06,1.54,6.14a5.29,5.29,0,0,0,4.52,2.07c2,0,3.42-.42,4.28-1.27V95.13h-4.85V91.21h10.17Z"/><path class="cls-1" d="M238.93,93.58H228.71v6.92h12v4.27H223.39V79h17.28v4.31h-12v6.16h10.22Z"/><path class="cls-1" d="M268.4,93.58H258.19v6.92h12v4.27H252.87V79h17.27v4.31H258.19v6.16H268.4Z"/><path class="cls-1" d="M286.69,98a2.74,2.74,0,0,0-1.07-2.32,14.23,14.23,0,0,0-3.83-1.7,27.74,27.74,0,0,1-4.38-1.76q-4.4-2.39-4.4-6.4a6.3,6.3,0,0,1,1.18-3.74,7.72,7.72,0,0,1,3.39-2.56,12.86,12.86,0,0,1,5-.92,11.58,11.58,0,0,1,4.93,1,7.88,7.88,0,0,1,3.36,2.83,7.39,7.39,0,0,1,1.2,4.15h-5.32a3.51,3.51,0,0,0-1.12-2.76,4.58,4.58,0,0,0-3.14-1,4.9,4.9,0,0,0-3,.82,2.61,2.61,0,0,0-1.09,2.17,2.49,2.49,0,0,0,1.27,2.11,14.38,14.38,0,0,0,3.74,1.6A16.1,16.1,0,0,1,290,92.93,6.74,6.74,0,0,1,292,98a6.21,6.21,0,0,1-2.54,5.26,11.12,11.12,0,0,1-6.83,1.91,13.28,13.28,0,0,1-5.42-1.09,8.64,8.64,0,0,1-3.74-3,7.71,7.71,0,0,1-1.28-4.4h5.33c0,2.85,1.71,4.27,5.11,4.27a4.91,4.91,0,0,0,3-.77A2.5,2.5,0,0,0,286.69,98Z"/><path class="cls-1" d="M315.06,83.26h-7.91v21.51h-5.32V83.26H294V79h21Z"/><path class="cls-1" d="M345.62,79V96a8.71,8.71,0,0,1-2.65,6.7,11.91,11.91,0,0,1-14.43.07,8.54,8.54,0,0,1-2.71-6.58V79h5.32V96a4.9,4.9,0,0,0,1.21,3.7,4.64,4.64,0,0,0,3.36,1.16q4.48,0,4.56-4.71V79Z"/><path class="cls-1" d="M371,104.77h-5.32l-10.36-17v17H350V79h5.32l10.37,17V79H371Z"/><path class="cls-1" d="M391.16,93.58H380.94v6.92h12v4.27H375.62V79H392.9v4.31h-12v6.16h10.22Z"/><path class="cls-1" d="M420.63,94.22H410.42v10.55H405.1V79h16.81v4.31H410.42v6.67h10.21Z"/><path class="cls-1" d="M430.65,104.77h-5.32V79h5.32Z"/><path class="cls-1" d="M440.9,100.5h11.3v4.27H435.58V79h5.32Z"/><path class="cls-1" d="M460.91,104.77h-5.32V79h5.32Z"/><path class="cls-1" d="M480.41,99.45h-9.32l-1.78,5.32h-5.66L473.27,79h4.93l9.66,25.82H482.2Zm-7.89-4.31H479l-3.25-9.66Z"/><path class="cls-1" d="M495.59,100.5h11.3v4.27H490.27V79h5.32Z"/><path class="cls-1" d="M525.48,93.58H515.26v6.92h12v4.27H509.94V79h17.27v4.31h-12v6.16h10.22Z"/><path class="cls-1" d="M539.41,104.77V79h8a12,12,0,0,1,6.09,1.54,10.7,10.7,0,0,1,4.2,4.36,13.53,13.53,0,0,1,1.5,6.43v1.19a13.46,13.46,0,0,1-1.48,6.4,10.64,10.64,0,0,1-4.17,4.34,12.15,12.15,0,0,1-6.09,1.56Zm5.32-21.51V100.5h2.58a5.78,5.78,0,0,0,4.77-2,9.18,9.18,0,0,0,1.68-5.83V91.26a9.38,9.38,0,0,0-1.63-6,5.77,5.77,0,0,0-4.77-2Z"/><path class="cls-1" d="M582.56,79V96a8.68,8.68,0,0,1-2.65,6.7,10.19,10.19,0,0,1-7.24,2.47,10.34,10.34,0,0,1-7.19-2.4,8.58,8.58,0,0,1-2.71-6.58V79h5.32V96a4.91,4.91,0,0,0,1.22,3.7,4.64,4.64,0,0,0,3.36,1.16q4.49,0,4.55-4.71V79Z"/></g></g></svg>