<svg id="Calque_1" data-name="Calque 1" xmlns="http://www.w3.org/2000/svg" viewBox="0 0 250 40"><defs><style>.cls-1,.cls-2{fill:#fff;}.cls-2{font-size:11.72px;font-family:Asap, sans-serif;}</style></defs><path class="cls-1" d="M185.57,14h3.51V29h-3.51Z"/><path class="cls-1" d="M185.57,11.77h3.51v1.3h-3.51Z"/><path class="cls-1" d="M232.24,14h3.51V29h-3.51Z"/><path class="cls-1" d="M232.24,11.77h3.51v1.3h-3.51Z"/><path class="cls-1" d="M184.19,14l-6.48,15h-3.42l-6.46-15h3.74l4.55,10.69L180.74,14Z"/><path class="cls-1" d="M191.05,14h3.47V26.16H202V29h-11Z"/><path class="cls-1" d="M214,25.77H207L205.68,29h-3.55l6.67-15h3.42l6.69,15h-3.63Zm-1.09-2.63-2.37-5.73-2.38,5.73Z"/><path class="cls-1" d="M231,14l-6.48,15H221.1l-6.45-15h3.74l4.55,10.69L227.56,14Z"/><text class="cls-2" transform="translate(12.25 28.81)">UNE MARQUE DU GROUPE </text></svg>
